<svg id="Réteg_1" data-name="Réteg 1" xmlns="http://www.w3.org/2000/svg" xmlns:xlink="http://www.w3.org/1999/xlink" viewBox="0 0 22.41 22.49"><defs><style>.cls-1{fill:url(#Névtelen_színátmenet_8);}</style><linearGradient id="Névtelen_színátmenet_8" x1="11.21" y1="22.6" x2="11.21" y2="-0.01" gradientUnits="userSpaceOnUse"><stop offset="0" stop-color="#aa2d7b"/><stop offset="1" stop-color="#d8316e"/></linearGradient></defs><title>amachrol</title><path class="cls-1" d="M22.09,19.67l-.18-.35c-.87-1.69-1.17-2.26-1.61-8-.41-5.25-3.93-8.93-8.59-9.08V.5a.5.5,0,0,0-.5-.5.5.5,0,0,0-.5.5V2.24C6,2.39,2.52,6.07,2.11,11.32c-.44,5.74-.73,6.31-1.61,8l-.18.35a.49.49,0,0,0-.31.56.5.5,0,0,0,.49.39H.6a52.89,52.89,0,0,1,8.36-1,.51.51,0,0,0-.25.42,2.5,2.5,0,0,0,5,0,.51.51,0,0,0-.25-.42,52.89,52.89,0,0,1,8.36,1,.49.49,0,0,0,.28-.94Zm-19-8.28C3.49,6.51,6.66,3.23,11,3.23h.43c4.33,0,7.5,3.28,7.88,8.16.43,5.55.73,6.46,1.54,8a52.89,52.89,0,0,0-19.27,0C2.38,17.85,2.68,16.94,3.11,11.39ZM12.7,20a1.5,1.5,0,0,1-3,0,.49.49,0,0,0-.26-.43q1.75-.06,3.51,0A.49.49,0,0,0,12.7,20Z"/></svg>