<svg id="Réteg_1" data-name="Réteg 1" xmlns="http://www.w3.org/2000/svg" xmlns:xlink="http://www.w3.org/1999/xlink" viewBox="0 0 21.34 21.33"><defs><style>.cls-1{fill:url(#Névtelen_színátmenet_8);}.cls-2{fill:url(#Névtelen_színátmenet_8-2);}</style><linearGradient id="Névtelen_színátmenet_8" x1="10.67" y1="21.3" x2="10.67" gradientUnits="userSpaceOnUse"><stop offset="0" stop-color="#aa2d7b"/><stop offset="1" stop-color="#d8316e"/></linearGradient><linearGradient id="Névtelen_színátmenet_8-2" x1="14.93" y1="21.47" x2="14.93" y2="0" xlink:href="#Névtelen_színátmenet_8"/></defs><title>azindulasban</title><path class="cls-1" d="M14.23,21.33a.51.51,0,0,1-.43-.23L8.66,12.68.24,7.53A.5.5,0,0,1,0,7.05a.51.51,0,0,1,.35-.42L20.68,0a.48.48,0,0,1,.51.12.5.5,0,0,1,.12.51L14.71,21a.51.51,0,0,1-.42.34ZM1.69,7.25l7.59,4.64a.55.55,0,0,1,.17.17l4.64,7.59,6-18.37-18.37,6Z"/><path class="cls-2" d="M9,12.82a.47.47,0,0,1-.35-.15.5.5,0,0,1,0-.71L20.48.15a.5.5,0,0,1,.71,0,.5.5,0,0,1,0,.7L9.37,12.67a.47.47,0,0,1-.35.15Z"/></svg>