<svg id="Réteg_1" data-name="Réteg 1" xmlns="http://www.w3.org/2000/svg" xmlns:xlink="http://www.w3.org/1999/xlink" viewBox="0 0 16.28 22.14"><defs><style>.cls-1{fill:url(#Névtelen_színátmenet_8);}.cls-2{fill:url(#Névtelen_színátmenet_8-2);}</style><linearGradient id="Névtelen_színátmenet_8" x1="8.23" y1="22.32" x2="8.23" y2="-0.22" gradientUnits="userSpaceOnUse"><stop offset="0" stop-color="#aa2d7b"/><stop offset="1" stop-color="#d8316e"/></linearGradient><linearGradient id="Névtelen_színátmenet_8-2" x1="8.14" y1="22.03" x2="8.14" y2="0.18" xlink:href="#Névtelen_színátmenet_8"/></defs><title>egyszeru</title><path class="cls-1" d="M8.23,9.76a4.62,4.62,0,0,1-4.3-4.88A4.62,4.62,0,0,1,8.23,0c2.37,0,4.29,2.19,4.29,4.88S10.6,9.76,8.23,9.76ZM8.23,1a3.63,3.63,0,0,0-3.3,3.88,3.63,3.63,0,0,0,3.3,3.88,3.63,3.63,0,0,0,3.29-3.88A3.63,3.63,0,0,0,8.23,1Z"/><path class="cls-2" d="M15.46,22.14H.83a.49.49,0,0,1-.5-.46L0,17a4.2,4.2,0,0,1,2.62-3.88,16.47,16.47,0,0,1,11,0A4.22,4.22,0,0,1,16.28,17L16,21.68a.5.5,0,0,1-.5.46Zm-14.17-1H15l.29-4.25a3.21,3.21,0,0,0-2-2.87A15.48,15.48,0,0,0,3,14a3.25,3.25,0,0,0-2,2.87l.29,4.25Z"/></svg>