<svg id="Réteg_1" data-name="Réteg 1" xmlns="http://www.w3.org/2000/svg" xmlns:xlink="http://www.w3.org/1999/xlink" viewBox="0 0 24 20.67"><defs><style>.cls-1{fill:url(#Névtelen_színátmenet_8);}.cls-2{fill:url(#Névtelen_színátmenet_8-2);}</style><linearGradient id="Névtelen_színátmenet_8" x1="12" y1="20.67" x2="12" gradientUnits="userSpaceOnUse"><stop offset="0" stop-color="#aa2d7b"/><stop offset="1" stop-color="#d8316e"/></linearGradient><linearGradient id="Névtelen_színátmenet_8-2" x1="18.79" y1="20.44" x2="18.79" y2="-0.02" xlink:href="#Névtelen_színátmenet_8"/></defs><title>hagydki</title><path class="cls-1" d="M12.17,20.67a.44.44,0,0,1-.24-.07l-.07,0-.34-.24c-.79-.55-2.62-1.83-3.84-2.76C3.17,14,.76,11.43.34,9.59A7.51,7.51,0,0,1,0,7.43,7.53,7.53,0,0,1,2.09,2.07,6.39,6.39,0,0,1,6.61.13h0a6.66,6.66,0,0,1,5.33,2.62A6.58,6.58,0,0,1,17.21,0h.13C21,0,24,3.2,24,7.13a7.42,7.42,0,0,1-.3,2.21c-.36,1.81-2.76,4.56-7.11,8.12a44.73,44.73,0,0,1-4.15,3.13.5.5,0,0,1-.27.08ZM6.68,1.13A5.39,5.39,0,0,0,2.81,2.77,6.55,6.55,0,0,0,1,7.42a6.3,6.3,0,0,0,.31,1.9c.26,1.14,1.67,3.31,7,7.45,1.19.92,3,2.18,3.79,2.73l.1.06c1-.64,2.23-1.6,3.76-2.87,5.2-4.25,6.56-6.48,6.78-7.59a6.58,6.58,0,0,0,.27-2A6,6,0,0,0,17.34,1h-.11a5.62,5.62,0,0,0-4.84,2.91.5.5,0,0,1-.43.25h0a.49.49,0,0,1-.42-.24A5.65,5.65,0,0,0,6.68,1.13Z" transform="translate(0 0)"/><path class="cls-2" d="M20.09,9.07H20a.51.51,0,0,1-.39-.59l.08-.31a3.18,3.18,0,0,0,.13-1,2.8,2.8,0,0,0-2.55-3,.5.5,0,1,1,0-1h0a3.78,3.78,0,0,1,3.55,4,4.1,4.1,0,0,1-.17,1.27l-.06.23a.5.5,0,0,1-.49.4Z" transform="translate(0 0)"/></svg>