<svg id="Réteg_1" data-name="Réteg 1" xmlns="http://www.w3.org/2000/svg" xmlns:xlink="http://www.w3.org/1999/xlink" viewBox="0 0 23.04 19.4"><defs><style>.cls-1{fill:url(#Névtelen_színátmenet_8);}</style><linearGradient id="Névtelen_színátmenet_8" x1="11.52" y1="19.4" x2="11.52" gradientUnits="userSpaceOnUse"><stop offset="0" stop-color="#aa2d7b"/><stop offset="1" stop-color="#d8316e"/></linearGradient></defs><title>hovaerdemes</title><path class="cls-1" d="M11,19.4a.41.41,0,0,1-.21,0,.5.5,0,0,1-.29-.45V14.57H.5a.5.5,0,0,1-.5-.5V5.33a.5.5,0,0,1,.5-.5h10V.5a.51.51,0,0,1,.82-.39l11.5,9.2A.53.53,0,0,1,23,9.7a.52.52,0,0,1-.18.39l-11.5,9.2a.46.46,0,0,1-.32.11ZM1,13.57H11a.5.5,0,0,1,.5.5v3.79L21.74,9.7,11.54,1.54V5.33a.5.5,0,0,1-.5.5H1v7.74Z"/></svg>