<svg id="Réteg_1" data-name="Réteg 1" xmlns="http://www.w3.org/2000/svg" xmlns:xlink="http://www.w3.org/1999/xlink" viewBox="0 0 22.2 19.68"><defs><style>.cls-1{fill:url(#Névtelen_színátmenet_8);}.cls-2{fill:url(#Névtelen_színátmenet_8-2);}.cls-3{fill:url(#Névtelen_színátmenet_8-4);}.cls-4{fill:url(#Névtelen_színátmenet_8-5);}</style><linearGradient id="Névtelen_színátmenet_8" x1="7.31" y1="19.99" x2="7.31" y2="0.05" gradientUnits="userSpaceOnUse"><stop offset="0" stop-color="#aa2d7b"/><stop offset="1" stop-color="#d8316e"/></linearGradient><linearGradient id="Névtelen_színátmenet_8-2" x1="7.23" y1="19.8" x2="7.23" y2="0.29" xlink:href="#Névtelen_színátmenet_8"/><linearGradient id="Névtelen_színátmenet_8-4" x1="18.91" y1="19.57" x2="18.91" y2="0.02" xlink:href="#Névtelen_színátmenet_8"/><linearGradient id="Névtelen_színátmenet_8-5" x1="17.51" y1="19.68" x2="17.51" y2="-0.26" xlink:href="#Névtelen_színátmenet_8"/></defs><title>ismerkedjazzal</title><path class="cls-1" d="M7.31,8.71A4.13,4.13,0,0,1,3.47,4.35,4.12,4.12,0,0,1,7.31,0a4.12,4.12,0,0,1,3.84,4.35A4.13,4.13,0,0,1,7.31,8.71ZM7.31,1A3.13,3.13,0,0,0,4.47,4.35,3.14,3.14,0,0,0,7.31,7.71a3.14,3.14,0,0,0,2.84-3.36A3.13,3.13,0,0,0,7.31,1Z"/><path class="cls-2" d="M13.66,19.68H.79a.5.5,0,0,1-.5-.47L0,15.06a3.75,3.75,0,0,1,2.34-3.47,14.51,14.51,0,0,1,9.75,0,3.73,3.73,0,0,1,2.34,3.47l-.28,4.15a.5.5,0,0,1-.5.47Zm-12.41-1h12L13.45,15a2.74,2.74,0,0,0-1.69-2.46,13.51,13.51,0,0,0-9.07,0A2.78,2.78,0,0,0,1,15l.25,3.69Z"/><path class="cls-2" d="M13.66,19.68H.79a.5.5,0,0,1-.5-.47L0,15.06a3.75,3.75,0,0,1,2.34-3.47,14.51,14.51,0,0,1,9.75,0,3.73,3.73,0,0,1,2.34,3.47l-.28,4.15a.5.5,0,0,1-.5.47Zm-12.41-1h12L13.45,15a2.74,2.74,0,0,0-1.69-2.46,13.51,13.51,0,0,0-9.07,0A2.78,2.78,0,0,0,1,15l.25,3.69Z"/><path class="cls-3" d="M21.45,19.68H16.32a.51.51,0,0,1-.5-.5.5.5,0,0,1,.5-.5H21l.22-3.12a2.33,2.33,0,0,0-1.42-2.06,11.4,11.4,0,0,0-3.67-.67.49.49,0,0,1-.49-.51.5.5,0,0,1,.51-.49,12.3,12.3,0,0,1,4,.73,3.32,3.32,0,0,1,2.08,3.06L22,19.21a.51.51,0,0,1-.5.47Z"/><path class="cls-4" d="M17.51,9.76a3.32,3.32,0,0,1-3.11-3.5,3.33,3.33,0,0,1,3.11-3.51,3.33,3.33,0,0,1,3.1,3.51,3.32,3.32,0,0,1-3.1,3.5Zm0-6A2.34,2.34,0,0,0,15.4,6.26a2.33,2.33,0,0,0,2.11,2.5,2.33,2.33,0,0,0,2.1-2.5,2.34,2.34,0,0,0-2.1-2.51Z"/></svg>