<svg id="Réteg_1" data-name="Réteg 1" xmlns="http://www.w3.org/2000/svg" xmlns:xlink="http://www.w3.org/1999/xlink" viewBox="0 0 19.5 23.25"><defs><style>.cls-1{fill:url(#Névtelen_színátmenet_8);}.cls-2{fill:url(#Névtelen_színátmenet_8-2);}</style><linearGradient id="Névtelen_színátmenet_8" x1="9.75" y1="22.65" x2="9.75" y2="-0.8" gradientUnits="userSpaceOnUse"><stop offset="0" stop-color="#aa2d7b"/><stop offset="1" stop-color="#d8316e"/></linearGradient><linearGradient id="Névtelen_színátmenet_8-2" x1="9.75" y1="18.91" x2="9.75" y2="-4.49" xlink:href="#Névtelen_színátmenet_8"/></defs><title>megmutatjuk</title><path class="cls-1" d="M9.75,23.25a.49.49,0,0,1-.32-.12C9,22.8,0,15,0,9.75a9.75,9.75,0,0,1,19.5,0c0,5.28-9,13.05-9.42,13.38a.52.52,0,0,1-.33.12ZM9.75,1A8.77,8.77,0,0,0,1,9.75c0,4.3,7.13,10.89,8.75,12.33,1.62-1.44,8.75-8,8.75-12.33A8.76,8.76,0,0,0,9.75,1Z"/><path class="cls-2" d="M9.75,14.25a4.5,4.5,0,1,1,4.5-4.5,4.51,4.51,0,0,1-4.5,4.5Zm0-8a3.5,3.5,0,1,0,3.5,3.5,3.5,3.5,0,0,0-3.5-3.5Z"/></svg>