<svg id="Réteg_1" data-name="Réteg 1" xmlns="http://www.w3.org/2000/svg" xmlns:xlink="http://www.w3.org/1999/xlink" viewBox="0 0 16.47 16.47"><defs><style>.cls-1{fill:url(#Névtelen_színátmenet_8);}.cls-2{fill:url(#Névtelen_színátmenet_8-2);}</style><linearGradient id="Névtelen_színátmenet_8" x1="8.24" y1="16.47" x2="8.24" gradientUnits="userSpaceOnUse"><stop offset="0" stop-color="#aa2d7b"/><stop offset="1" stop-color="#d8316e"/></linearGradient><linearGradient id="Névtelen_színátmenet_8-2" x1="8.24" y1="16.47" x2="8.24" xlink:href="#Névtelen_színátmenet_8"/></defs><title>nincstobb</title><path class="cls-1" d="M.5,16.47a.47.47,0,0,1-.35-.15.5.5,0,0,1,0-.71L15.62.15a.48.48,0,0,1,.7,0,.48.48,0,0,1,0,.7L.85,16.32a.47.47,0,0,1-.35.15Z"/><path class="cls-2" d="M16,16.47a.47.47,0,0,1-.35-.15L.15.85a.48.48,0,0,1,0-.7.48.48,0,0,1,.7,0L16.32,15.61a.5.5,0,0,1,0,.71.47.47,0,0,1-.35.15Z"/></svg>