<svg id="Réteg_1" data-name="Réteg 1" xmlns="http://www.w3.org/2000/svg" xmlns:xlink="http://www.w3.org/1999/xlink" viewBox="0 0 22.55 22.55"><defs><style>.cls-1{fill:url(#Névtelen_színátmenet_8);}.cls-2{fill:url(#Névtelen_színátmenet_8-2);}.cls-3{fill:url(#Névtelen_színátmenet_8-3);}.cls-4{fill:url(#Névtelen_színátmenet_8-4);}</style><linearGradient id="Névtelen_színátmenet_8" x1="11.27" y1="21.25" x2="11.27" y2="-1.87" gradientUnits="userSpaceOnUse"><stop offset="0" stop-color="#aa2d7b"/><stop offset="1" stop-color="#d8316e"/></linearGradient><linearGradient id="Névtelen_színátmenet_8-2" x1="11.27" y1="25.17" x2="11.27" y2="5.88" xlink:href="#Névtelen_színátmenet_8"/><linearGradient id="Névtelen_színátmenet_8-3" x1="7.86" y1="17.78" x2="7.86" y2="-5.34" xlink:href="#Névtelen_színátmenet_8"/><linearGradient id="Névtelen_színátmenet_8-4" x1="14.69" y1="19.33" x2="14.69" y2="-3.79" xlink:href="#Névtelen_színátmenet_8"/></defs><title>pofonegyszeru</title><path class="cls-1" d="M19.25,3.3A11.28,11.28,0,0,0,0,11.28,11.27,11.27,0,0,0,11.27,22.55a11.28,11.28,0,0,0,8-19.25Zm-.71,15.24A10.27,10.27,0,1,1,4,4,10.27,10.27,0,0,1,18.54,18.54Z" transform="translate(0 0)"/><path class="cls-2" d="M18.05,10.78a.5.5,0,0,0-.5.5,6.27,6.27,0,0,1-6.27,6.27A6.28,6.28,0,0,1,5,11.28a.5.5,0,0,0-.5-.5h0a.5.5,0,0,0-.5.5,7.28,7.28,0,0,0,14.55,0A.5.5,0,0,0,18.05,10.78Z" transform="translate(0 0)"/><path class="cls-3" d="M7.86,11.41a1.5,1.5,0,1,0-1.5-1.5A1.5,1.5,0,0,0,7.86,11.41Zm0-2a.51.51,0,0,1,.5.5.5.5,0,0,1-.5.5.5.5,0,0,1-.5-.5A.5.5,0,0,1,7.86,9.41Z" transform="translate(0 0)"/><path class="cls-4" d="M14.69,11.41a1.5,1.5,0,1,0-1.5-1.5A1.5,1.5,0,0,0,14.69,11.41Zm0-2a.5.5,0,0,1,.5.5.5.5,0,0,1-.5.5.5.5,0,0,1-.5-.5A.51.51,0,0,1,14.69,9.41Z" transform="translate(0 0)"/></svg>