<svg id="Réteg_1" data-name="Réteg 1" xmlns="http://www.w3.org/2000/svg" xmlns:xlink="http://www.w3.org/1999/xlink" viewBox="0 0 21.7 21.71"><defs><style>.cls-1{fill:url(#Névtelen_színátmenet_8);}.cls-2{fill:url(#Névtelen_színátmenet_8-2);}.cls-3{fill:url(#Névtelen_színátmenet_8-3);}</style><linearGradient id="Névtelen_színátmenet_8" x1="10.85" y1="21.95" x2="10.85" y2="-0.22" gradientUnits="userSpaceOnUse"><stop offset="0" stop-color="#aa2d7b"/><stop offset="1" stop-color="#d8316e"/></linearGradient><linearGradient id="Névtelen_színátmenet_8-2" x1="15.79" y1="21.56" x2="15.79" y2="-0.04" xlink:href="#Névtelen_színátmenet_8"/><linearGradient id="Névtelen_színátmenet_8-3" x1="6.17" y1="22.24" x2="6.17" y2="0.46" xlink:href="#Névtelen_színátmenet_8"/></defs><title>rogton</title><path class="cls-1" d="M9.46,21.71A.51.51,0,0,1,9,21a6.29,6.29,0,0,0-.68-6.07,10,10,0,0,1-1-.14.5.5,0,0,1-.39-.39,9.19,9.19,0,0,1-.14-1A6.45,6.45,0,0,0,.69,12.7a.49.49,0,0,1-.54-.11A.49.49,0,0,1,0,12,7.13,7.13,0,0,1,1.56,9.77a7.26,7.26,0,0,1,6.14-2,12.75,12.75,0,0,1,2.74-4A12.36,12.36,0,0,1,19.08,0a10.51,10.51,0,0,1,2,.2.5.5,0,0,1,.4.39A12.09,12.09,0,0,1,18,11.27a12.6,12.6,0,0,1-4,2.73,7.15,7.15,0,0,1-4.28,7.67.65.65,0,0,1-.2,0ZM7.83,13.87c.25,0,.51.07.8.09a.49.49,0,0,1,.36.2,7.32,7.32,0,0,1,1.32,6,5.5,5.5,0,0,0,.91-.75,6.18,6.18,0,0,0,1.67-5.65.5.5,0,0,1,.3-.56,11.84,11.84,0,0,0,4.08-2.67,11.15,11.15,0,0,0,3.32-9.44,11.21,11.21,0,0,0-9.45,3.31A11.91,11.91,0,0,0,8.48,8.51a.5.5,0,0,1-.57.31,6.23,6.23,0,0,0-5.64,1.66,6,6,0,0,0-.75.91,7.47,7.47,0,0,1,6,1.33.54.54,0,0,1,.2.36c0,.29,0,.55.08.79Z" transform="translate(0)"/><path class="cls-2" d="M15.79,8.41A2.45,2.45,0,0,1,14,7.68a2.5,2.5,0,0,1,0-3.53,2.55,2.55,0,0,1,3.54,0,2.5,2.5,0,0,1-1.77,4.26Zm0-4A1.51,1.51,0,0,0,14.73,7a1.55,1.55,0,0,0,2.12,0,1.51,1.51,0,0,0,0-2.13,1.5,1.5,0,0,0-1.06-.44Z" transform="translate(0)"/><path class="cls-3" d="M4.42,18.77a5.51,5.51,0,0,1-1-.08A.5.5,0,0,1,3,18.28a6.79,6.79,0,0,1,2-5.83.5.5,0,1,1,.71.71A5.82,5.82,0,0,0,4,17.75,5.82,5.82,0,0,0,8.55,16a.49.49,0,1,1,.7.7,6.89,6.89,0,0,1-4.83,2.08Z" transform="translate(0)"/></svg>