<svg id="Réteg_1" data-name="Réteg 1" xmlns="http://www.w3.org/2000/svg" xmlns:xlink="http://www.w3.org/1999/xlink" viewBox="0 0 22.03 15.75"><defs><style>.cls-1{fill:url(#Névtelen_színátmenet_8);}.cls-2{fill:url(#Névtelen_színátmenet_8-2);}</style><linearGradient id="Névtelen_színátmenet_8" x1="11.01" y1="15.37" x2="11.01" y2="-0.54" gradientUnits="userSpaceOnUse"><stop offset="0" stop-color="#aa2d7b"/><stop offset="1" stop-color="#d8316e"/></linearGradient><linearGradient id="Névtelen_színátmenet_8-2" x1="11.01" y1="15.39" x2="11.01" y2="-0.57" xlink:href="#Névtelen_színátmenet_8"/></defs><title>sohatobbe</title><path class="cls-1" d="M11,15.75A11.42,11.42,0,0,1,0,8a.55.55,0,0,1,0-.31A11.42,11.42,0,0,1,11,0,11.41,11.41,0,0,1,22,7.72.55.55,0,0,1,22,8a11.4,11.4,0,0,1-11,7.72ZM1,7.88a10.43,10.43,0,0,0,10,6.87A10.43,10.43,0,0,0,21,7.88,10.43,10.43,0,0,0,11,1,10.42,10.42,0,0,0,1,7.88Z"/><path class="cls-2" d="M11,12.79A4.91,4.91,0,0,1,6.1,7.88a.5.5,0,0,1,.5-.5.5.5,0,0,1,.5.5A3.92,3.92,0,1,0,11,4a.5.5,0,0,1,0-1,4.92,4.92,0,1,1,0,9.83Z"/></svg>