<svg id="Réteg_1" data-name="Réteg 1" xmlns="http://www.w3.org/2000/svg" xmlns:xlink="http://www.w3.org/1999/xlink" viewBox="0 0 23.86 24.2"><defs><style>.cls-1{fill:url(#Névtelen_színátmenet_8);}.cls-2{fill:url(#Névtelen_színátmenet_8-2);}.cls-3{fill:url(#Névtelen_színátmenet_8-3);}.cls-4{fill:url(#Névtelen_színátmenet_8-4);}.cls-5{fill:url(#Névtelen_színátmenet_8-5);}</style><linearGradient id="Névtelen_színátmenet_8" x1="17.91" y1="23.82" x2="17.91" y2="0.12" gradientUnits="userSpaceOnUse"><stop offset="0" stop-color="#aa2d7b"/><stop offset="1" stop-color="#d8316e"/></linearGradient><linearGradient id="Névtelen_színátmenet_8-2" x1="16.32" y1="23.9" x2="16.32" y2="0.18" xlink:href="#Névtelen_színátmenet_8"/><linearGradient id="Névtelen_színátmenet_8-3" x1="4.99" y1="24.46" x2="4.99" y2="0.32" xlink:href="#Névtelen_színátmenet_8"/><linearGradient id="Névtelen_színátmenet_8-4" x1="11.48" y1="24.33" x2="11.48" y2="0.23" xlink:href="#Névtelen_színátmenet_8"/><linearGradient id="Névtelen_színátmenet_8-5" x1="9.32" y1="24.34" x2="9.32" y2="0.76" xlink:href="#Névtelen_színátmenet_8"/></defs><title>szohozjtt</title><path class="cls-1" d="M23.36,11.89a.5.5,0,0,1-.5-.5A10.4,10.4,0,0,0,12.47,1,.5.5,0,0,1,12,.5a.5.5,0,0,1,.5-.5A11.4,11.4,0,0,1,23.86,11.39a.5.5,0,0,1-.5.5Z"/><path class="cls-2" d="M20.16,11.89a.5.5,0,0,1-.5-.5A7.19,7.19,0,0,0,12.47,4.2a.5.5,0,0,1,0-1,8.19,8.19,0,0,1,8.19,8.19.5.5,0,0,1-.5.5Z"/><path class="cls-3" d="M4.37,23.62a4.37,4.37,0,0,1-3.09-7.46l2.38-2.38a.51.51,0,0,1,.71,0,.5.5,0,0,1,0,.71L2,16.87a3.36,3.36,0,0,0,0,4.76,3.43,3.43,0,0,0,4.76,0l2.38-2.38a.51.51,0,0,1,.71,0,.5.5,0,0,1,0,.71L7.46,22.34a4.37,4.37,0,0,1-3.09,1.28Z"/><path class="cls-4" d="M10.23,20.49a.51.51,0,0,1-.42-.22,22.43,22.43,0,0,0-6.45-6.46.49.49,0,0,1-.18-.63l4.37-9.1a.53.53,0,0,1,.32-.27.5.5,0,0,1,.41.07A39.76,39.76,0,0,1,19.75,15.34a.51.51,0,0,1-.2.73l-9.11,4.37a.41.41,0,0,1-.21,0Zm-6-7.27a23.21,23.21,0,0,1,6.13,6.13l8.19-3.93A38.44,38.44,0,0,0,8.21,5L4.27,13.22Z"/><path class="cls-5" d="M9.85,24.2a4,4,0,0,1-2.76-1.26.49.49,0,1,1,.7-.7,3.1,3.1,0,0,0,2.06,1h0a1.42,1.42,0,0,0,1-.37.5.5,0,0,1,.71,0,.51.51,0,0,1,0,.71,2.35,2.35,0,0,1-1.7.67Z"/></svg>