<svg id="Réteg_1" data-name="Réteg 1" xmlns="http://www.w3.org/2000/svg" xmlns:xlink="http://www.w3.org/1999/xlink" viewBox="0 0 22.33 22.33"><defs><style>.cls-1{fill:url(#Névtelen_színátmenet_8);}.cls-2{fill:url(#Névtelen_színátmenet_8-2);}.cls-3{fill:url(#Névtelen_színátmenet_8-3);}.cls-4{fill:url(#Névtelen_színátmenet_8-4);}.cls-5{fill:url(#Névtelen_színátmenet_8-5);}.cls-6{fill:url(#Névtelen_színátmenet_8-6);}.cls-7{fill:url(#Névtelen_színátmenet_8-7);}.cls-8{fill:url(#Névtelen_színátmenet_8-8);}.cls-9{fill:url(#Névtelen_színátmenet_8-9);}.cls-10{fill:url(#Névtelen_színátmenet_8-10);}.cls-11{fill:url(#Névtelen_színátmenet_8-11);}.cls-12{fill:url(#Névtelen_színátmenet_8-12);}.cls-13{fill:url(#Névtelen_színátmenet_8-13);}.cls-14{fill:url(#Névtelen_színátmenet_8-14);}</style><linearGradient id="Névtelen_színátmenet_8" x1="11.17" y1="21.32" x2="11.17" y2="-1.01" gradientUnits="userSpaceOnUse"><stop offset="0" stop-color="#aa2d7b"/><stop offset="1" stop-color="#d8316e"/></linearGradient><linearGradient id="Névtelen_színátmenet_8-2" x1="15.44" y1="21.41" x2="15.44" y2="-0.46" xlink:href="#Névtelen_színátmenet_8"/><linearGradient id="Névtelen_színátmenet_8-3" x1="6.89" y1="20.8" x2="6.89" y2="-1.07" xlink:href="#Névtelen_színátmenet_8"/><linearGradient id="Névtelen_színátmenet_8-4" x1="18.57" y1="22.63" x2="18.57" y2="-0.9" xlink:href="#Névtelen_színátmenet_8"/><linearGradient id="Névtelen_színátmenet_8-5" x1="3.76" y1="21.09" x2="3.76" y2="-2.44" xlink:href="#Névtelen_színátmenet_8"/><linearGradient id="Névtelen_színátmenet_8-6" x1="6.89" y1="21.2" x2="6.89" y2="-1.76" xlink:href="#Névtelen_színátmenet_8"/><linearGradient id="Névtelen_színátmenet_8-7" x1="15.44" y1="22" x2="15.44" y2="-0.97" xlink:href="#Névtelen_színátmenet_8"/><linearGradient id="Névtelen_színátmenet_8-8" x1="3.76" y1="20.22" x2="3.76" y2="-1.13" xlink:href="#Névtelen_színátmenet_8"/><linearGradient id="Névtelen_színátmenet_8-9" x1="18.57" y1="21.52" x2="18.57" y2="0.17" xlink:href="#Névtelen_színátmenet_8"/><linearGradient id="Névtelen_színátmenet_8-10" x1="2.62" y1="19.67" x2="2.62" y2="-1.21" xlink:href="#Névtelen_színátmenet_8"/><linearGradient id="Névtelen_színátmenet_8-11" x1="19.72" y1="21.62" x2="19.72" y2="0.79" xlink:href="#Névtelen_színátmenet_8"/><linearGradient id="Névtelen_színátmenet_8-12" x1="11.17" y1="21.39" x2="11.17" y2="-1.01" xlink:href="#Névtelen_színátmenet_8"/><linearGradient id="Névtelen_színátmenet_8-13" x1="11.17" y1="21.31" x2="11.17" y2="-1.1" xlink:href="#Névtelen_színátmenet_8"/><linearGradient id="Névtelen_színátmenet_8-14" x1="9.66" y1="20.81" x2="9.66" y2="-0.95" xlink:href="#Névtelen_színátmenet_8"/></defs><title>valosidoben</title><path class="cls-1" d="M11.17,22.33A11.17,11.17,0,1,1,22.33,11.17,11.18,11.18,0,0,1,11.17,22.33ZM11.17,1A10.17,10.17,0,1,0,21.33,11.17,10.18,10.18,0,0,0,11.17,1Z"/><path class="cls-2" d="M15.31,4.45a.46.46,0,0,1-.4-.68l.27-.47a.46.46,0,0,1,.62-.17.47.47,0,0,1,.17.63l-.27.46a.45.45,0,0,1-.39.23Z"/><path class="cls-3" d="M6.76,19.26a.46.46,0,0,1-.23-.06.46.46,0,0,1-.17-.62l.27-.47a.46.46,0,0,1,.79.46L7.15,19a.45.45,0,0,1-.39.23Z"/><path class="cls-4" d="M18.8,16a.46.46,0,0,1-.22-.06l-.47-.27a.46.46,0,0,1,.46-.79l.46.27a.45.45,0,0,1-.23.85Z"/><path class="cls-5" d="M4,7.48a.46.46,0,0,1-.22-.06L3.3,7.15a.46.46,0,0,1-.17-.62.47.47,0,0,1,.63-.17l.46.27a.46.46,0,0,1,.17.62.46.46,0,0,1-.4.23Z"/><path class="cls-6" d="M7,4.45a.45.45,0,0,1-.4-.23l-.27-.46a.47.47,0,0,1,.17-.63.46.46,0,0,1,.62.17l.27.47a.45.45,0,0,1-.17.62A.46.46,0,0,1,7,4.45Z"/><path class="cls-7" d="M15.58,19.26a.44.44,0,0,1-.39-.22l-.27-.47a.45.45,0,0,1,.78-.46l.27.47a.45.45,0,0,1-.16.62.46.46,0,0,1-.23.06Z"/><path class="cls-8" d="M3.53,16a.46.46,0,0,1-.4-.23.46.46,0,0,1,.17-.62l.47-.27a.46.46,0,0,1,.62.17.47.47,0,0,1-.17.63L3.75,16a.43.43,0,0,1-.22.06Z"/><path class="cls-9" d="M18.34,7.48A.43.43,0,0,1,18,7.25a.45.45,0,0,1,.16-.62l.47-.27a.46.46,0,0,1,.62.17.46.46,0,0,1-.17.62l-.46.27a.46.46,0,0,1-.23.06Z"/><path class="cls-10" d="M2.88,11.62H2.35a.46.46,0,1,1,0-.91h.53a.47.47,0,0,1,.46.46.46.46,0,0,1-.46.45Z"/><path class="cls-11" d="M19.45,11.62a.46.46,0,1,1,0-.91H20a.45.45,0,0,1,.45.45.46.46,0,0,1-.45.46Z"/><path class="cls-12" d="M11.16,20.44h0a.46.46,0,0,1-.45-.46v-.54a.46.46,0,0,1,.46-.45h0a.46.46,0,0,1,.45.46V20a.46.46,0,0,1-.46.45Z"/><path class="cls-13" d="M11.17,3.34a.47.47,0,0,1-.46-.46V2.35a.47.47,0,0,1,.46-.46.46.46,0,0,1,.45.46v.53a.46.46,0,0,1-.45.46Z"/><path class="cls-14" d="M11.17,3.76a.5.5,0,0,0-.5.5V11L7.79,13.83a.51.51,0,0,0,0,.71.51.51,0,0,0,.36.15.5.5,0,0,0,.35-.15l2.9-2.9,0-.07a.48.48,0,0,0,.22-.4V4.26A.51.51,0,0,0,11.17,3.76Z"/></svg>