<svg id="Réteg_1" data-name="Réteg 1" xmlns="http://www.w3.org/2000/svg" xmlns:xlink="http://www.w3.org/1999/xlink" viewBox="0 0 13.9 24.89"><defs><style>.cls-1{fill:url(#Névtelen_színátmenet_8);}</style><linearGradient id="Névtelen_színátmenet_8" x1="6.95" y1="24.89" x2="6.95" gradientUnits="userSpaceOnUse"><stop offset="0" stop-color="#aa2d7b"/><stop offset="1" stop-color="#d8316e"/></linearGradient></defs><title>villamgyors</title><path class="cls-1" d="M3.17,24.89A.59.59,0,0,1,3,24.84a.48.48,0,0,1-.26-.58l2.58-9.2H.5a.51.51,0,0,1-.45-.28.51.51,0,0,1,.05-.52L10.33.21A.5.5,0,0,1,11,.05a.48.48,0,0,1,.26.58L8.63,9.83H13.4a.51.51,0,0,1,.41.8L3.57,24.69a.48.48,0,0,1-.4.2ZM1.48,14.06H5.93a.5.5,0,0,1,.48.63l-2,7.16,8-11H8a.51.51,0,0,1-.48-.63L9.5,3l-8,11Z"/></svg>